<svg width="21" height="23" viewBox="0 0 21 23" fill="none" xmlns="http://www.w3.org/2000/svg">
<path d="M10.2568 0.750002L12.8939 9.3L19.3501 15.75L10.2568 13.65L1.16357 15.75L7.61979 9.3L10.2568 0.750002Z" fill="#786656"/>
<path d="M10.2572 22L7.43181 12.3812L0.514429 5.125L10.2572 7.4875L20 5.125L13.0826 12.3812L10.2572 22Z" fill="#3C210D"/>
<path d="M10.2572 22L9.77748 22.1409C9.84001 22.3538 10.0353 22.5 10.2572 22.5C10.4791 22.5 10.6744 22.3538 10.7369 22.1409L10.2572 22ZM7.43181 12.3812L7.91154 12.2403C7.88908 12.1639 7.84868 12.0939 7.79371 12.0362L7.43181 12.3812ZM0.514429 5.125L0.632257 4.63908C0.416637 4.58679 0.19235 4.68285 0.0814148 4.875C-0.0295186 5.06714 -0.000565023 5.30941 0.152524 5.47L0.514429 5.125ZM10.2572 7.4875L10.1394 7.97342C10.2168 7.99219 10.2976 7.99219 10.375 7.97342L10.2572 7.4875ZM20 5.125L20.3619 5.47C20.515 5.30941 20.5439 5.06714 20.433 4.875C20.3221 4.68285 20.0978 4.5868 19.8822 4.63908L20 5.125ZM13.0826 12.3812L12.7207 12.0362C12.6657 12.0939 12.6253 12.1639 12.6029 12.2403L13.0826 12.3812ZM10.7369 21.8591L7.91154 12.2403L6.95207 12.5222L9.77748 22.1409L10.7369 21.8591ZM7.79371 12.0362L0.876331 4.78L0.152524 5.47L7.0699 12.7262L7.79371 12.0362ZM0.396598 5.61091L10.1394 7.97342L10.375 7.00158L0.632257 4.63908L0.396598 5.61091ZM10.375 7.97342L20.1178 5.61092L19.8822 4.63908L10.1394 7.00158L10.375 7.97342ZM19.6381 4.78L12.7207 12.0362L13.4445 12.7263L20.3619 5.47L19.6381 4.78ZM12.6029 12.2403L9.77748 21.8591L10.7369 22.1409L13.5624 12.5222L12.6029 12.2403Z" fill="#786656"/>
</svg>
