<svg width="21" height="23" viewBox="0 0 21 23" fill="none" xmlns="http://www.w3.org/2000/svg">
<path d="M10.2568 0.750002L12.8939 9.7275L19.3501 16.5L10.2568 14.295L1.16357 16.5L7.61979 9.7275L10.2568 0.750002Z" fill="#786656"/>
<path d="M7.43164 12.3809L0.51465 5.125L10.2568 7.4873L20 5.125L13.083 12.3809L10.2568 22L7.43164 12.3809Z" fill="#FFD489"/>
<path d="M7.43164 12.3809L7.91138 12.24C7.88892 12.1635 7.84852 12.0935 7.79354 12.0359L7.43164 12.3809ZM0.51465 5.125L0.632476 4.63908C0.416856 4.5868 0.192571 4.68286 0.081636 4.875C-0.0292973 5.06714 -0.000343771 5.30941 0.152746 5.47L0.51465 5.125ZM10.2568 7.4873L10.139 7.97322C10.2164 7.992 10.2972 7.992 10.3747 7.97322L10.2568 7.4873ZM20 5.125L20.3619 5.47C20.515 5.30941 20.5439 5.06715 20.433 4.87501C20.3221 4.68286 20.0978 4.5868 19.8822 4.63908L20 5.125ZM13.083 12.3809L12.7211 12.0359C12.6661 12.0935 12.6257 12.1635 12.6033 12.2399L13.083 12.3809ZM10.2568 22L9.7771 22.1409C9.83962 22.3538 10.0349 22.5 10.2568 22.5C10.4787 22.5 10.674 22.3538 10.7366 22.1409L10.2568 22ZM7.43164 12.3809L7.79354 12.0359L0.876554 4.78L0.51465 5.125L0.152746 5.47L7.06974 12.7259L7.43164 12.3809ZM0.51465 5.125L0.396823 5.61092L10.139 7.97322L10.2568 7.4873L10.3747 7.00138L0.632476 4.63908L0.51465 5.125ZM10.2568 7.4873L10.3747 7.97322L20.1178 5.61092L20 5.125L19.8822 4.63908L10.139 7.00138L10.2568 7.4873ZM20 5.125L19.6381 4.78L12.7211 12.0359L13.083 12.3809L13.4449 12.7259L20.3619 5.47L20 5.125ZM13.083 12.3809L12.6033 12.2399L9.77711 21.8591L10.2568 22L10.7366 22.1409L13.5627 12.5218L13.083 12.3809ZM10.2568 22L10.7366 21.8591L7.91138 12.24L7.43164 12.3809L6.95191 12.5218L9.7771 22.1409L10.2568 22Z" fill="#786656"/>
</svg>
