<svg width="278" height="20" viewBox="0 0 278 20" fill="none" xmlns="http://www.w3.org/2000/svg">
<path d="M8.71881 19.36C7.15081 19.36 5.74281 18.984 4.49481 18.232C3.24681 17.48 2.27081 16.44 1.56681 15.112C0.878813 13.784 0.534813 12.28 0.534813 10.6C0.534813 8.92 0.878813 7.416 1.56681 6.088C2.27081 4.76 3.24681 3.72 4.49481 2.968C5.74281 2.216 7.15081 1.84 8.71881 1.84C9.53481 1.84 10.3748 1.984 11.2388 2.272C11.8948 2.496 12.7188 2.856 13.7108 3.352V0.879999H14.1908V8.2H13.7348V7.192C13.7348 6.488 13.4628 5.752 12.9188 4.984C12.3908 4.216 11.7268 3.576 10.9268 3.064C10.1268 2.552 9.34281 2.296 8.57481 2.296C7.55081 2.296 6.64681 2.624 5.86281 3.28C5.09481 3.92 4.49481 4.864 4.06281 6.112C3.63081 7.36 3.41481 8.856 3.41481 10.6C3.41481 12.36 3.63081 13.864 4.06281 15.112C4.51081 16.36 5.12681 17.304 5.91081 17.944C6.69481 18.584 7.59081 18.904 8.59881 18.904C9.46281 18.904 10.3348 18.624 11.2148 18.064C12.0948 17.488 12.8148 16.768 13.3748 15.904C13.9508 15.04 14.2388 14.184 14.2388 13.336V12.256H14.6948V19.816H14.2148V17.656C13.1108 18.248 12.2068 18.664 11.5028 18.904C10.5908 19.208 9.66281 19.36 8.71881 19.36ZM16.9683 18.52H19.2483V2.68H16.9683V2.2H21.5763V9.808C21.9283 8.848 22.4643 8.104 23.1843 7.576C23.9043 7.032 24.7603 6.76 25.7523 6.76C26.7283 6.76 27.5603 6.984 28.2483 7.432C28.9523 7.88 29.4883 8.528 29.8563 9.376C30.2243 10.224 30.4083 11.248 30.4083 12.448V18.52H32.5683V19H25.8723V18.52H28.0563V12.448C28.0563 10.816 27.7843 9.584 27.2403 8.752C26.7123 7.904 25.9443 7.48 24.9363 7.48C24.2963 7.48 23.7203 7.704 23.2083 8.152C22.6963 8.584 22.2963 9.208 22.0083 10.024C21.7203 10.824 21.5763 11.736 21.5763 12.76V18.52H23.8323V19H16.9683V18.52ZM33.0933 18.52H35.3733V7.48H33.0933V7H37.7013V9.64C38.0213 8.728 38.5013 8.024 39.1413 7.528C39.7973 7.016 40.5333 6.76 41.3493 6.76C41.9573 6.76 42.5173 6.888 43.0293 7.144C43.1893 7.224 43.3333 7.312 43.4613 7.408C43.6053 7.504 43.7413 7.6 43.8693 7.696V5.656H44.3493V11.92H43.9173V10.84C43.9173 10.36 43.7413 9.872 43.3893 9.376C43.0373 8.864 42.5973 8.44 42.0693 8.104C41.5413 7.768 41.0293 7.6 40.5333 7.6C40.0373 7.6 39.5733 7.8 39.1413 8.2C38.7093 8.6 38.3573 9.168 38.0853 9.904C37.8293 10.624 37.7013 11.456 37.7013 12.4V18.52H40.7013V19H33.0933V18.52ZM52.5801 19.24C51.3161 19.24 50.1801 18.976 49.1721 18.448C48.1801 17.904 47.3961 17.16 46.8201 16.216C46.2601 15.256 45.9801 14.184 45.9801 13C45.9801 11.8 46.2601 10.728 46.8201 9.784C47.3961 8.84 48.1801 8.104 49.1721 7.576C50.1801 7.032 51.3161 6.76 52.5801 6.76C53.8441 6.76 54.9721 7.032 55.9641 7.576C56.9721 8.104 57.7561 8.848 58.3161 9.808C58.8921 10.752 59.1801 11.816 59.1801 13C59.1801 14.184 58.8921 15.256 58.3161 16.216C57.7561 17.16 56.9721 17.904 55.9641 18.448C54.9561 18.976 53.8281 19.24 52.5801 19.24ZM52.5801 18.808C53.4121 18.808 54.1401 18.584 54.7641 18.136C55.3881 17.672 55.8681 17 56.2041 16.12C56.5401 15.24 56.7081 14.2 56.7081 13C56.7081 11.784 56.5401 10.744 56.2041 9.88C55.8681 9 55.3881 8.328 54.7641 7.864C54.1401 7.4 53.4121 7.168 52.5801 7.168C51.7481 7.168 51.0121 7.4 50.3721 7.864C49.7481 8.328 49.2681 9 48.9321 9.88C48.5961 10.744 48.4281 11.784 48.4281 13C48.4281 14.2 48.5961 15.24 48.9321 16.12C49.2681 17 49.7481 17.672 50.3721 18.136C51.0121 18.584 51.7481 18.808 52.5801 18.808ZM60.6089 18.52H62.8889V7.48H60.6089V7H65.2169V9.808C65.5689 8.848 66.1049 8.104 66.8249 7.576C67.5449 7.032 68.4009 6.76 69.3929 6.76C70.3689 6.76 71.2009 6.984 71.8889 7.432C72.5929 7.88 73.1289 8.528 73.4969 9.376C73.8649 10.224 74.0489 11.248 74.0489 12.448V18.52H76.2089V19H69.3929V18.52H71.6969V12.448C71.6969 10.816 71.4249 9.584 70.8809 8.752C70.3529 7.904 69.5849 7.48 68.5769 7.48C67.9369 7.48 67.3609 7.704 66.8489 8.152C66.3369 8.584 65.9369 9.208 65.6489 10.024C65.3609 10.824 65.2169 11.736 65.2169 12.76V18.52H67.4729V19H60.6089V18.52ZM76.7339 18.52H79.2539V7.48H76.7339V7H81.5819V18.52H84.1019V19H76.7339V18.52ZM78.8699 1.12H81.9179L80.5019 5.44H80.2619L78.8699 1.12ZM96.0089 18.112C95.5609 18.368 95.0169 18.6 94.3769 18.808C93.9609 18.952 93.5289 19.056 93.0809 19.12C92.6489 19.2 92.2089 19.24 91.7609 19.24C90.5449 19.24 89.4569 18.976 88.4969 18.448C87.5529 17.904 86.8089 17.16 86.2649 16.216C85.7209 15.272 85.4489 14.2 85.4489 13C85.4489 11.8 85.7209 10.728 86.2649 9.784C86.8089 8.84 87.5529 8.104 88.4969 7.576C89.4569 7.032 90.5449 6.76 91.7609 6.76C92.4809 6.76 93.2409 6.88 94.0409 7.12C94.6009 7.28 95.1209 7.488 95.6009 7.744V5.728H96.0809V11.56H95.6249V10.744C95.6249 10.248 95.4089 9.72 94.9769 9.16C94.5609 8.6 94.0409 8.128 93.4169 7.744C92.8089 7.36 92.2329 7.168 91.6889 7.168C90.9369 7.168 90.2729 7.4 89.6969 7.864C89.1209 8.312 88.6729 8.976 88.3529 9.856C88.0489 10.736 87.8969 11.784 87.8969 13C87.8969 14.216 88.0489 15.264 88.3529 16.144C88.6729 17.008 89.1209 17.672 89.6969 18.136C90.2729 18.584 90.9369 18.808 91.6889 18.808C92.3129 18.808 92.9609 18.616 93.6329 18.232C94.3049 17.832 94.8649 17.336 95.3129 16.744C95.7769 16.152 96.0169 15.584 96.0329 15.04V14.152H96.4889V19.816H96.0089V18.112ZM98.5542 18.52H101.074V2.68H98.5542V2.2H103.402V18.52H106.042V19H98.5542V18.52ZM118.28 18.112C117.832 18.368 117.288 18.6 116.648 18.808C116.216 18.952 115.776 19.056 115.328 19.12C114.88 19.2 114.432 19.24 113.984 19.24C112.736 19.24 111.616 18.984 110.624 18.472C109.632 17.944 108.856 17.208 108.296 16.264C107.752 15.304 107.48 14.216 107.48 13C107.48 11.8 107.752 10.728 108.296 9.784C108.84 8.824 109.584 8.08 110.528 7.552C111.472 7.024 112.536 6.76 113.72 6.76C114.952 6.76 116.032 7.024 116.96 7.552C117.888 8.064 118.608 8.792 119.12 9.736C119.648 10.68 119.92 11.76 119.936 12.976C119.936 13.008 119.936 13.048 119.936 13.096C119.936 13.144 119.936 13.192 119.936 13.24H109.928C109.944 14.392 110.12 15.392 110.456 16.24C110.808 17.072 111.272 17.712 111.848 18.16C112.424 18.608 113.08 18.832 113.816 18.832C114.44 18.832 115.104 18.648 115.808 18.28C116.512 17.896 117.104 17.424 117.584 16.864C118.064 16.304 118.304 15.776 118.304 15.28V14.8H118.76V19.816H118.28V18.112ZM117.488 12.76C117.472 11.56 117.304 10.544 116.984 9.712C116.68 8.864 116.248 8.232 115.688 7.816C115.144 7.384 114.488 7.168 113.72 7.168C112.968 7.168 112.312 7.4 111.752 7.864C111.192 8.312 110.752 8.96 110.432 9.808C110.112 10.656 109.944 11.64 109.928 12.76H117.488ZM122.056 14.152H122.488V15.016C122.488 15.576 122.808 16.144 123.448 16.72C124.088 17.28 124.912 17.744 125.92 18.112C126.944 18.48 127.976 18.664 129.016 18.664C129.864 18.664 130.536 18.504 131.032 18.184C131.528 17.864 131.776 17.424 131.776 16.864C131.776 16.528 131.664 16.232 131.44 15.976C131.216 15.72 130.824 15.48 130.264 15.256C129.72 15.016 128.96 14.784 127.984 14.56C126.544 14.192 125.4 13.808 124.552 13.408C123.72 12.992 123.112 12.52 122.728 11.992C122.36 11.464 122.176 10.832 122.176 10.096C122.176 9.056 122.56 8.24 123.328 7.648C124.096 7.056 125.168 6.76 126.544 6.76C127.216 6.76 127.832 6.816 128.392 6.928C128.968 7.024 129.512 7.168 130.024 7.36C130.28 7.456 130.68 7.648 131.224 7.936V5.752H131.704V11.368H131.248V10.6C131.248 10.104 130.928 9.608 130.288 9.112C129.648 8.6 128.872 8.184 127.96 7.864C127.048 7.544 126.224 7.384 125.488 7.384C124.752 7.384 124.168 7.544 123.736 7.864C123.32 8.168 123.112 8.584 123.112 9.112C123.112 9.608 123.304 10.032 123.688 10.384C124.072 10.72 124.752 11.048 125.728 11.368C125.968 11.448 126.216 11.528 126.472 11.608C126.744 11.672 127.024 11.744 127.312 11.824C127.424 11.856 127.536 11.888 127.648 11.92C127.76 11.952 127.872 11.984 127.984 12.016C129.2 12.368 130.144 12.728 130.816 13.096C131.504 13.448 131.992 13.848 132.28 14.296C132.568 14.728 132.712 15.24 132.712 15.832C132.712 16.936 132.328 17.784 131.56 18.376C130.808 18.968 129.72 19.264 128.296 19.264C127.864 19.264 127.392 19.232 126.88 19.168C126.368 19.12 125.848 19.048 125.32 18.952C124.072 18.712 123.144 18.432 122.536 18.112V19.816H122.056V14.152ZM145.379 19.18C144.467 19.18 143.645 18.976 142.913 18.568C142.181 18.16 141.605 17.602 141.185 16.894C140.765 16.174 140.555 15.376 140.555 14.5C140.555 13.612 140.765 12.814 141.185 12.106C141.605 11.398 142.181 10.84 142.913 10.432C143.645 10.024 144.467 9.82 145.379 9.82C146.303 9.82 147.131 10.024 147.863 10.432C148.595 10.84 149.171 11.404 149.591 12.124C150.011 12.832 150.221 13.624 150.221 14.5C150.221 15.376 150.011 16.174 149.591 16.894C149.171 17.602 148.589 18.16 147.845 18.568C147.113 18.976 146.291 19.18 145.379 19.18ZM145.379 18.352C146.039 18.352 146.633 18.196 147.161 17.884C147.689 17.56 148.097 17.104 148.385 16.516C148.673 15.928 148.817 15.256 148.817 14.5C148.817 13.744 148.673 13.072 148.385 12.484C148.097 11.896 147.689 11.44 147.161 11.116C146.633 10.792 146.039 10.63 145.379 10.63C144.719 10.63 144.125 10.792 143.597 11.116C143.081 11.44 142.673 11.896 142.373 12.484C142.085 13.072 141.941 13.744 141.941 14.5C141.941 15.256 142.085 15.928 142.373 16.516C142.673 17.104 143.081 17.56 143.597 17.884C144.125 18.196 144.719 18.352 145.379 18.352ZM151.353 18.172H153.009V10.828H151.353V10H153.009V9.208C153.009 8.548 153.129 7.984 153.369 7.516C153.609 7.036 153.951 6.67 154.395 6.418C154.851 6.166 155.379 6.04 155.979 6.04C156.399 6.04 156.795 6.088 157.167 6.184C157.539 6.28 157.905 6.412 158.265 6.58C158.325 6.616 158.379 6.652 158.427 6.688C158.487 6.724 158.535 6.766 158.571 6.814V5.59H159.363V9.154H158.571V8.704C158.571 8.416 158.445 8.128 158.193 7.84C157.941 7.552 157.617 7.318 157.221 7.138C156.825 6.946 156.423 6.85 156.015 6.85C155.391 6.85 154.899 7.012 154.539 7.336C154.191 7.66 154.017 8.104 154.017 8.668C154.017 8.776 154.023 8.89 154.035 9.01C154.059 9.118 154.089 9.238 154.125 9.37C154.149 9.466 154.167 9.568 154.179 9.676C154.203 9.784 154.227 9.892 154.251 10H158.121V10.828H154.287C154.299 10.924 154.305 11.026 154.305 11.134C154.317 11.242 154.323 11.356 154.323 11.476V18.172H156.807V19H151.353V18.172ZM171.65 2.2C173.41 2.2 174.978 2.56 176.354 3.28C177.73 3.984 178.794 4.976 179.546 6.256C180.314 7.52 180.698 8.968 180.698 10.6C180.698 12.232 180.314 13.688 179.546 14.968C178.794 16.232 177.73 17.224 176.354 17.944C174.978 18.648 173.41 19 171.65 19H164.018V18.52H166.658V2.68H164.018V2.2H171.65ZM171.65 18.52C172.93 18.52 174.026 18.216 174.938 17.608C175.866 17 176.578 16.104 177.074 14.92C177.57 13.72 177.818 12.28 177.818 10.6C177.818 8.904 177.57 7.464 177.074 6.28C176.594 5.096 175.89 4.2 174.962 3.592C174.034 2.984 172.93 2.68 171.65 2.68H169.418V18.52H171.65ZM186.404 19.264C185.172 19.264 184.22 18.984 183.548 18.424C182.892 17.864 182.564 17.12 182.564 16.192C182.564 15.04 183.044 14.2 184.004 13.672C184.964 13.144 186.244 12.816 187.844 12.688C188.724 12.608 189.436 12.496 189.98 12.352C190.54 12.192 190.956 11.968 191.228 11.68C191.516 11.392 191.66 11.016 191.66 10.552C191.66 9.448 191.412 8.608 190.916 8.032C190.42 7.456 189.74 7.168 188.876 7.168C188.332 7.168 187.708 7.36 187.004 7.744C186.316 8.128 185.724 8.6 185.228 9.16C184.748 9.72 184.508 10.248 184.508 10.744V11.56H184.052V5.92H184.532V7.744C184.66 7.696 184.74 7.664 184.772 7.648C185.668 7.344 186.388 7.12 186.932 6.976C187.492 6.832 188.092 6.76 188.732 6.76C190.316 6.76 191.556 7.2 192.452 8.08C193.364 8.96 193.82 10.168 193.82 11.704V18.52H195.932V19H191.66V15.976C191.292 17.016 190.644 17.824 189.716 18.4C188.788 18.976 187.684 19.264 186.404 19.264ZM187.388 18.544C188.156 18.544 188.868 18.344 189.524 17.944C190.18 17.528 190.7 16.952 191.084 16.216C191.468 15.48 191.66 14.648 191.66 13.72V11.872C191.452 12.144 191.116 12.368 190.652 12.544C190.204 12.72 189.628 12.856 188.924 12.952C187.532 13.096 186.508 13.416 185.852 13.912C185.212 14.408 184.892 15.12 184.892 16.048C184.892 16.816 185.124 17.424 185.588 17.872C186.052 18.32 186.652 18.544 187.388 18.544ZM196.453 18.52H198.733V7.48H196.453V7H201.061V9.64C201.381 8.728 201.861 8.024 202.501 7.528C203.157 7.016 203.893 6.76 204.709 6.76C205.317 6.76 205.877 6.888 206.389 7.144C206.549 7.224 206.693 7.312 206.821 7.408C206.965 7.504 207.101 7.6 207.229 7.696V5.656H207.709V11.92H207.277V10.84C207.277 10.36 207.101 9.872 206.749 9.376C206.397 8.864 205.957 8.44 205.429 8.104C204.901 7.768 204.389 7.6 203.893 7.6C203.397 7.6 202.933 7.8 202.501 8.2C202.069 8.6 201.717 9.168 201.445 9.904C201.189 10.624 201.061 11.456 201.061 12.4V18.52H204.061V19H196.453V18.52ZM208.148 18.52H210.428V2.68H208.148V2.2H212.756V12.76H214.34L219.164 7.48H216.5V7H221.876V7.48H219.812L216.068 11.584L221.18 18.52H223.436V19H216.188V18.52H218.468L214.364 13.24H212.756V18.52H214.868V19H208.148V18.52ZM222.796 18.52H225.076V7.48H222.796V7H227.404V9.808C227.756 8.848 228.292 8.104 229.012 7.576C229.732 7.032 230.588 6.76 231.58 6.76C232.556 6.76 233.388 6.984 234.076 7.432C234.78 7.88 235.316 8.528 235.684 9.376C236.052 10.224 236.236 11.248 236.236 12.448V18.52H238.396V19H231.58V18.52H233.884V12.448C233.884 10.816 233.612 9.584 233.068 8.752C232.54 7.904 231.772 7.48 230.764 7.48C230.124 7.48 229.548 7.704 229.036 8.152C228.524 8.584 228.124 9.208 227.836 10.024C227.548 10.824 227.404 11.736 227.404 12.76V18.52H229.66V19H222.796V18.52ZM250.444 18.112C249.996 18.368 249.452 18.6 248.812 18.808C248.38 18.952 247.94 19.056 247.492 19.12C247.044 19.2 246.596 19.24 246.148 19.24C244.9 19.24 243.78 18.984 242.788 18.472C241.796 17.944 241.02 17.208 240.46 16.264C239.916 15.304 239.644 14.216 239.644 13C239.644 11.8 239.916 10.728 240.46 9.784C241.004 8.824 241.748 8.08 242.692 7.552C243.636 7.024 244.7 6.76 245.884 6.76C247.116 6.76 248.196 7.024 249.124 7.552C250.052 8.064 250.772 8.792 251.284 9.736C251.812 10.68 252.084 11.76 252.1 12.976C252.1 13.008 252.1 13.048 252.1 13.096C252.1 13.144 252.1 13.192 252.1 13.24H242.092C242.108 14.392 242.284 15.392 242.62 16.24C242.972 17.072 243.436 17.712 244.012 18.16C244.588 18.608 245.244 18.832 245.98 18.832C246.604 18.832 247.268 18.648 247.972 18.28C248.676 17.896 249.268 17.424 249.748 16.864C250.228 16.304 250.468 15.776 250.468 15.28V14.8H250.924V19.816H250.444V18.112ZM249.652 12.76C249.636 11.56 249.468 10.544 249.148 9.712C248.844 8.864 248.412 8.232 247.852 7.816C247.308 7.384 246.652 7.168 245.884 7.168C245.132 7.168 244.476 7.4 243.916 7.864C243.356 8.312 242.916 8.96 242.596 9.808C242.276 10.656 242.108 11.64 242.092 12.76H249.652ZM254.22 14.152H254.652V15.016C254.652 15.576 254.972 16.144 255.612 16.72C256.252 17.28 257.076 17.744 258.084 18.112C259.108 18.48 260.14 18.664 261.18 18.664C262.028 18.664 262.7 18.504 263.196 18.184C263.692 17.864 263.94 17.424 263.94 16.864C263.94 16.528 263.828 16.232 263.604 15.976C263.38 15.72 262.988 15.48 262.428 15.256C261.884 15.016 261.124 14.784 260.148 14.56C258.708 14.192 257.564 13.808 256.716 13.408C255.884 12.992 255.276 12.52 254.892 11.992C254.524 11.464 254.34 10.832 254.34 10.096C254.34 9.056 254.724 8.24 255.492 7.648C256.26 7.056 257.332 6.76 258.708 6.76C259.38 6.76 259.996 6.816 260.556 6.928C261.132 7.024 261.676 7.168 262.188 7.36C262.444 7.456 262.844 7.648 263.388 7.936V5.752H263.868V11.368H263.412V10.6C263.412 10.104 263.092 9.608 262.452 9.112C261.812 8.6 261.036 8.184 260.124 7.864C259.212 7.544 258.388 7.384 257.652 7.384C256.916 7.384 256.332 7.544 255.9 7.864C255.484 8.168 255.276 8.584 255.276 9.112C255.276 9.608 255.468 10.032 255.852 10.384C256.236 10.72 256.916 11.048 257.892 11.368C258.132 11.448 258.38 11.528 258.636 11.608C258.908 11.672 259.188 11.744 259.476 11.824C259.588 11.856 259.7 11.888 259.812 11.92C259.924 11.952 260.036 11.984 260.148 12.016C261.364 12.368 262.308 12.728 262.98 13.096C263.668 13.448 264.156 13.848 264.444 14.296C264.732 14.728 264.876 15.24 264.876 15.832C264.876 16.936 264.492 17.784 263.724 18.376C262.972 18.968 261.884 19.264 260.46 19.264C260.028 19.264 259.556 19.232 259.044 19.168C258.532 19.12 258.012 19.048 257.484 18.952C256.236 18.712 255.308 18.432 254.7 18.112V19.816H254.22V14.152ZM266.947 14.152H267.379V15.016C267.379 15.576 267.699 16.144 268.339 16.72C268.979 17.28 269.803 17.744 270.811 18.112C271.835 18.48 272.867 18.664 273.907 18.664C274.755 18.664 275.427 18.504 275.923 18.184C276.419 17.864 276.667 17.424 276.667 16.864C276.667 16.528 276.555 16.232 276.331 15.976C276.107 15.72 275.715 15.48 275.155 15.256C274.611 15.016 273.851 14.784 272.875 14.56C271.435 14.192 270.291 13.808 269.443 13.408C268.611 12.992 268.003 12.52 267.619 11.992C267.251 11.464 267.067 10.832 267.067 10.096C267.067 9.056 267.451 8.24 268.219 7.648C268.987 7.056 270.059 6.76 271.435 6.76C272.107 6.76 272.723 6.816 273.283 6.928C273.859 7.024 274.403 7.168 274.915 7.36C275.171 7.456 275.571 7.648 276.115 7.936V5.752H276.595V11.368H276.139V10.6C276.139 10.104 275.819 9.608 275.179 9.112C274.539 8.6 273.763 8.184 272.851 7.864C271.939 7.544 271.115 7.384 270.379 7.384C269.643 7.384 269.059 7.544 268.627 7.864C268.211 8.168 268.003 8.584 268.003 9.112C268.003 9.608 268.195 10.032 268.579 10.384C268.963 10.72 269.643 11.048 270.619 11.368C270.859 11.448 271.107 11.528 271.363 11.608C271.635 11.672 271.915 11.744 272.203 11.824C272.315 11.856 272.427 11.888 272.539 11.92C272.651 11.952 272.763 11.984 272.875 12.016C274.091 12.368 275.035 12.728 275.707 13.096C276.395 13.448 276.883 13.848 277.171 14.296C277.459 14.728 277.603 15.24 277.603 15.832C277.603 16.936 277.219 17.784 276.451 18.376C275.699 18.968 274.611 19.264 273.187 19.264C272.755 19.264 272.283 19.232 271.771 19.168C271.259 19.12 270.739 19.048 270.211 18.952C268.963 18.712 268.035 18.432 267.427 18.112V19.816H266.947V14.152Z" fill="#786656"/>
</svg>
