<svg width="32" height="32" viewBox="0 0 32 32" fill="none" xmlns="http://www.w3.org/2000/svg">
<path fill-rule="evenodd" clip-rule="evenodd" d="M29.1562 20.3309C27.2071 21.3597 24.9854 21.9428 22.6294 21.9428C14.8974 21.9428 8.6294 15.6748 8.6294 7.94277C8.6294 6.25955 8.92717 4.6439 9.47294 3.14707C6.14361 4.90383 3.53105 7.98844 2.48101 11.9073C0.479824 19.3758 4.91198 27.0525 12.3805 29.0537C19.4479 30.9474 26.7016 27.0803 29.1562 20.3309ZM29.8638 17.5177C27.8524 19.0398 25.3463 19.9428 22.6294 19.9428C16.002 19.9428 10.6294 14.5702 10.6294 7.94277C10.6294 5.80722 11.1872 3.80197 12.1652 2.06478C12.1774 2.04307 12.1897 2.02141 12.202 1.99979C12.2841 1.85602 12.3691 1.7141 12.4569 1.57414C12.5471 1.43039 12.6403 1.28868 12.7363 1.14911C13.0993 0.621477 12.6812 -0.137061 12.0606 0.0213265C11.8305 0.0800632 11.6019 0.14386 11.3752 0.212623C11.2238 0.258514 11.0733 0.306618 10.9235 0.356905C10.8968 0.365866 10.8702 0.374899 10.8436 0.383998C5.9671 2.05036 1.98315 6.03788 0.549158 11.3896C-1.73791 19.9251 3.32741 28.6985 11.8629 30.9855C20.3983 33.2726 29.1717 28.2073 31.4588 19.6718C31.5544 19.3151 31.6371 18.9581 31.7073 18.601C31.7127 18.5734 31.7181 18.5458 31.7233 18.5181C31.7531 18.3624 31.7805 18.2067 31.8055 18.051C31.8433 17.8158 31.8757 17.5807 31.9028 17.3459C31.9763 16.7098 31.1688 16.3977 30.6948 16.8282C30.5694 16.9422 30.4415 17.0535 30.3112 17.1621C30.1841 17.2681 30.0548 17.3715 29.9234 17.4723C29.9036 17.4875 29.8837 17.5026 29.8638 17.5177Z" fill="#FFD489"/>
</svg>
