<svg width="34" height="34" viewBox="0 0 34 34" fill="none" xmlns="http://www.w3.org/2000/svg">
<path d="M17.001 28.5C17.553 28.5003 18.001 28.9479 18.001 29.5V33C18.001 33.5521 17.553 33.9997 17.001 34C16.4487 34 16.001 33.5523 16.001 33V29.5C16.001 28.9477 16.4487 28.5 17.001 28.5ZM7.4541 25.1318C7.84458 24.7414 8.47763 24.7414 8.86816 25.1318C9.25869 25.5224 9.25869 26.1554 8.86816 26.5459L6.39355 29.0205C6.00303 29.411 5.37002 29.411 4.97949 29.0205C4.5891 28.63 4.58901 27.9969 4.97949 27.6064L7.4541 25.1318ZM25.1318 25.1309C25.5223 24.7406 26.1554 24.7407 26.5459 25.1309L29.0205 27.6064C29.411 27.997 29.411 28.63 29.0205 29.0205C28.63 29.4107 27.9969 29.4109 27.6064 29.0205L25.1318 26.5459C24.7413 26.1554 24.7413 25.5214 25.1318 25.1309ZM17.001 8C21.9713 8.00026 26.001 12.0296 26.001 17C26.001 21.9704 21.9713 25.9997 17.001 26C12.0304 26 8.00098 21.9706 8.00098 17C8.00098 12.0294 12.0304 8 17.001 8ZM17.001 10C13.135 10 10.001 13.134 10.001 17C10.001 20.866 13.135 24 17.001 24C20.8667 23.9997 24.001 20.8658 24.001 17C24.001 13.1342 20.8667 10.0003 17.001 10ZM4.5 16C5.05228 16 5.5 16.4477 5.5 17C5.49991 17.5522 5.05223 18 4.5 18H1C0.44777 18 8.66099e-05 17.5522 0 17C0 16.4477 0.447717 16 1 16H4.5ZM33 16C33.5523 16 34 16.4477 34 17C33.9999 17.5522 33.5522 18 33 18H29.5C28.9478 18 28.5001 17.5522 28.5 17C28.5 16.4477 28.9477 16 29.5 16H33ZM4.97949 4.97852C5.37001 4.58822 6.00309 4.58814 6.39355 4.97852L8.86816 7.45312C9.25869 7.84365 9.25869 8.47764 8.86816 8.86816C8.47766 9.25836 7.84454 9.25845 7.4541 8.86816L4.97949 6.39258C4.58905 6.00205 4.58899 5.36901 4.97949 4.97852ZM27.6064 4.97949C27.997 4.58897 28.631 4.58897 29.0215 4.97949C29.4116 5.37 29.4118 6.00314 29.0215 6.39355L26.5459 8.86816C26.1554 9.25859 25.5223 9.25866 25.1318 8.86816C24.7415 8.47766 24.7414 7.84459 25.1318 7.4541L27.6064 4.97949ZM17.001 0C17.553 0.000263794 18.001 0.447878 18.001 1V4.5C18.001 5.05212 17.553 5.49974 17.001 5.5C16.4487 5.5 16.001 5.05228 16.001 4.5V1C16.001 0.447715 16.4487 0 17.001 0Z" fill="#3C210D"/>
</svg>
