<svg width="17" height="22" viewBox="0 0 17 22" fill="none" xmlns="http://www.w3.org/2000/svg">
<path d="M11.7914 10.0545L14.7163 6.20411L16.7116 7.71988L13.7867 11.5721L11.7914 10.0545ZM11.1927 9.61086L14.3029 5.5142L12.208 3.92441L9.09785 8.02108L11.1927 9.61086ZM9.91345 5.05891L9.01498 6.90101L11.6685 3.40954L9.68953 1.90588L8.00245 4.12692L9.91345 5.05891ZM8.94794 1.64937L6.77672 0L4.82149 2.57484L7.31999 3.79314L8.94794 1.64937ZM13.9291 12.6135L7.45825 7.83207L6.99645 7.87443L7.20873 7.96754L10.1025 14.4119L9.3334 14.5166L6.64823 8.53455L4.78611 7.71057L4.5999 6.27487L6.43455 7.17893L8.12722 7.02391L8.91862 5.40247L3.75589 2.88442L0 8.1221L4.70604 15.221L3.64929 18.5514L7.98104 22L12.3128 18.5514V16.429L13.9556 14.1512L14.4542 11.9204L13.9291 12.6135Z" fill="#786656"/>
</svg>
