<svg width="23" height="22" viewBox="0 0 23 22" fill="none" xmlns="http://www.w3.org/2000/svg">
<path d="M12.7109 2.05664C16.8824 2.51786 20.1931 5.82853 20.6543 10H22.7109V12H20.6543C20.1931 16.1714 16.8824 19.4811 12.7109 19.9424V22H10.7109V19.9424C6.53952 19.4811 3.22879 16.1714 2.76758 12H0.710938V10H2.76758C3.2288 5.82853 6.53947 2.51786 10.7109 2.05664V0H12.7109V2.05664ZM12.7109 6H10.7109V4.07227C7.64568 4.5108 5.22174 6.93474 4.7832 10H6.71094V12H4.7832C5.22174 15.0652 7.64575 17.4882 10.7109 17.9268V16H12.7109V17.9268C15.7761 17.4882 18.2001 15.0652 18.6387 12H16.7109V10H18.6387C18.2001 6.93474 15.7762 4.5108 12.7109 4.07227V6ZM14.7109 11L11.7109 14L8.71094 11L11.7109 8L14.7109 11Z" fill="#786656"/>
</svg>
