<svg width="36" height="36" viewBox="0 0 36 36" fill="none" xmlns="http://www.w3.org/2000/svg">
<g clip-path="url(#clip0_587_7612)">
<path d="M35.5595 7.42893L28.5711 0.440476C28.2891 0.158469 27.9066 0 27.5077 0H1.50377C0.673227 0 0 0.673315 0 1.50377V34.4962C0 35.3268 0.673227 36 1.50377 36H34.4962C35.3268 36 36 35.3268 36 34.4962V8.49223C36 8.09349 35.8416 7.71094 35.5595 7.42893ZM26 14H6V3H26V14Z" fill="#FFD489"/>
<path d="M18.501 12.5H22.4986C22.7755 12.5 22.9999 12.2756 22.9999 11.9987L23.0008 5.00123C23.0008 4.72444 22.7764 4.5 22.4995 4.5H18.4998C18.2229 4.5 17.9985 4.72444 17.9985 5.00123L17.9998 11.9987C17.9998 12.2756 18.2241 12.5 18.501 12.5Z" fill="#FFD489"/>
</g>
<defs>
<clipPath id="clip0_587_7612">
<rect width="36" height="36" fill="white"/>
</clipPath>
</defs>
</svg>
